<svg width="253" height="73" viewBox="0 0 253 73" fill="none" xmlns="http://www.w3.org/2000/svg">
<path d="M40.4166 32.6979C40.111 26.3294 39.7035 22.9076 35.6289 18.7253C30.4338 13.3073 28.4984 8.07943 32.7767 0C33.8972 5.41797 34.3047 10.2656 38.3793 13.2122C42.4539 16.1589 45.8155 24.1432 40.4166 32.6979ZM32.7767 32.6979C32.573 29.276 32.3693 27.5651 30.1282 25.1888C27.3779 22.3372 26.2573 19.5807 28.6002 15.2083C29.2114 18.1549 29.3133 20.7214 31.5543 22.2422C33.7954 23.763 35.7308 28.1354 32.7767 32.6979ZM51.2143 62.7344H69.7538C70.8743 62.7344 71.2818 63.4948 70.5687 64.3503C70.5687 64.3503 63.3363 73 53.3535 73H17.5988L0.383583 64.3503C-0.329473 63.4948 -0.0238777 62.7344 1.09664 62.7344H19.4324C16.8857 61.4987 13.1167 56.0807 13.1167 49.332V35.0742H57.7337V36.2148C59.1598 35.0742 60.8915 34.5039 62.7251 34.5039C65.2717 34.5039 70.0594 36.9753 70.0594 41.2526C70.0594 47.431 65.6792 49.7122 63.1325 51.3281C63.1325 51.3281 58.3449 54.8451 54.9833 58.9323C53.8628 60.7383 52.5386 62.1641 51.2143 62.7344ZM62.7251 37.0703C61.0952 37.0703 59.0579 37.7357 57.7337 40.7773V48.6667C57.7337 49.7122 57.6318 50.9479 57.4281 51.9935C59.6691 49.9023 62.3176 48.4766 62.3176 48.4766C63.9475 47.431 67.2071 45.4349 67.2071 41.5378C67.309 38.7812 64.5586 37.0703 62.7251 37.0703ZM20.8585 38.2109H18.0063V42.1081H20.8585V38.2109ZM20.8585 44.3893H18.0063V50.7578C18.0063 50.7578 18.8212 59.3125 24.6275 61.8789C21.0622 57.9818 20.8585 53.5143 20.8585 50.7578V44.3893Z" fill="white"/>
<path d="M99.28 42.28H100.592C100.677 42.6213 100.752 43.0373 100.816 43.528C100.901 43.9973 100.965 44.5093 101.008 45.064C101.072 45.5973 101.115 46.1307 101.136 46.664C101.157 47.1973 101.168 47.6773 101.168 48.104C100.421 48.5733 99.4827 48.904 98.352 49.096C97.2427 49.288 96.1013 49.384 94.928 49.384C93.1573 49.384 91.5467 49.1707 90.096 48.744C88.6667 48.296 87.44 47.6027 86.416 46.664C85.4133 45.704 84.6347 44.4987 84.08 43.048C83.5253 41.576 83.248 39.816 83.248 37.768C83.248 35.7413 83.5467 34.0027 84.144 32.552C84.7627 31.08 85.584 29.8747 86.608 28.936C87.632 27.9973 88.816 27.3147 90.16 26.888C91.5253 26.44 92.9547 26.216 94.448 26.216C95.856 26.216 97.1253 26.3227 98.256 26.536C99.408 26.728 100.347 26.9947 101.072 27.336C101.072 27.6773 101.051 28.1147 101.008 28.648C100.987 29.1813 100.933 29.7467 100.848 30.344C100.784 30.92 100.699 31.496 100.592 32.072C100.507 32.6267 100.421 33.096 100.336 33.48H98.992L97.232 28.648C97.04 28.5413 96.7307 28.456 96.304 28.392C95.8773 28.328 95.44 28.296 94.992 28.296C94.1173 28.296 93.296 28.4773 92.528 28.84C91.76 29.1813 91.0773 29.736 90.48 30.504C89.8827 31.272 89.4133 32.264 89.072 33.48C88.7307 34.6747 88.56 36.1147 88.56 37.8C88.56 40.8507 89.168 43.1973 90.384 44.84C91.6 46.4827 93.2533 47.304 95.344 47.304C95.9413 47.304 96.4427 47.2613 96.848 47.176C97.2747 47.0693 97.5627 46.9307 97.712 46.76L99.28 42.28ZM103.342 37.8C103.342 36.136 103.576 34.6 104.046 33.192C104.515 31.7627 105.208 30.536 106.126 29.512C107.043 28.4667 108.174 27.656 109.518 27.08C110.862 26.504 112.408 26.216 114.158 26.216C115.907 26.216 117.454 26.504 118.798 27.08C120.142 27.656 121.262 28.4667 122.158 29.512C123.075 30.536 123.768 31.7627 124.238 33.192C124.707 34.6 124.942 36.136 124.942 37.8C124.942 39.464 124.707 41.0107 124.238 42.44C123.768 43.848 123.075 45.0747 122.158 46.12C121.262 47.144 120.142 47.944 118.798 48.52C117.454 49.096 115.907 49.384 114.158 49.384C112.408 49.384 110.862 49.096 109.518 48.52C108.174 47.944 107.043 47.144 106.126 46.12C105.208 45.0747 104.515 43.848 104.046 42.44C103.576 41.0107 103.342 39.464 103.342 37.8ZM108.782 37.8C108.782 39.1653 108.888 40.4347 109.102 41.608C109.315 42.76 109.646 43.7627 110.094 44.616C110.563 45.448 111.15 46.1093 111.854 46.6C112.579 47.0693 113.443 47.304 114.446 47.304C115.363 47.304 116.142 47.0693 116.782 46.6C117.422 46.1093 117.944 45.448 118.35 44.616C118.755 43.7627 119.043 42.76 119.214 41.608C119.406 40.4347 119.502 39.1653 119.502 37.8C119.502 36.4347 119.395 35.176 119.182 34.024C118.99 32.8507 118.67 31.848 118.222 31.016C117.795 30.1627 117.219 29.5013 116.494 29.032C115.79 28.5413 114.926 28.296 113.902 28.296C112.92 28.296 112.099 28.5413 111.438 29.032C110.776 29.5013 110.243 30.1627 109.838 31.016C109.454 31.848 109.176 32.8507 109.006 34.024C108.856 35.176 108.782 36.4347 108.782 37.8ZM133.963 46.856C134.944 46.984 135.872 47.2933 136.747 47.784V49H126.859V47.784C127.2 47.592 127.563 47.4213 127.947 47.272C128.331 47.1013 128.736 46.9627 129.163 46.856V28.744C128.672 28.6373 128.235 28.4987 127.851 28.328C127.488 28.1573 127.157 27.9867 126.859 27.816V26.6H143.595C143.595 27.0267 143.573 27.496 143.531 28.008C143.488 28.4987 143.435 29.0107 143.371 29.544C143.328 30.056 143.264 30.568 143.179 31.08C143.115 31.5707 143.04 32.0293 142.955 32.456H141.643L140.171 28.68H133.963V37.096H138.347L139.787 34.632H140.747C140.832 35.1867 140.885 35.7733 140.907 36.392C140.949 37.0107 140.971 37.6293 140.971 38.248C140.949 38.888 140.917 39.5067 140.875 40.104C140.853 40.7013 140.811 41.2347 140.747 41.704H139.787L138.347 39.176H133.963V46.856ZM152.369 46.856C153.35 46.984 154.278 47.2933 155.153 47.784V49H145.265V47.784C145.606 47.592 145.969 47.4213 146.353 47.272C146.737 47.1013 147.142 46.9627 147.569 46.856V28.744C147.078 28.6373 146.641 28.4987 146.257 28.328C145.894 28.1573 145.564 27.9867 145.265 27.816V26.6H162.001C162.001 27.0267 161.98 27.496 161.937 28.008C161.894 28.4987 161.841 29.0107 161.777 29.544C161.734 30.056 161.67 30.568 161.585 31.08C161.521 31.5707 161.446 32.0293 161.361 32.456H160.049L158.577 28.68H152.369V37.096H156.753L158.193 34.632H159.153C159.238 35.1867 159.292 35.7733 159.313 36.392C159.356 37.0107 159.377 37.6293 159.377 38.248C159.356 38.888 159.324 39.5067 159.281 40.104C159.26 40.7013 159.217 41.2347 159.153 41.704H158.193L156.753 39.176H152.369V46.856ZM173.975 49H163.991V47.784C164.845 47.3147 165.709 47.0053 166.583 46.856V28.744C166.157 28.68 165.709 28.5627 165.239 28.392C164.77 28.2213 164.354 28.0293 163.991 27.816V26.6H173.975V27.816C173.591 28.0507 173.165 28.2533 172.695 28.424C172.247 28.5733 171.81 28.68 171.383 28.744V46.856C171.81 46.9413 172.247 47.0587 172.695 47.208C173.165 47.3573 173.591 47.5493 173.975 47.784V49ZM192.41 26.6C192.367 27.56 192.292 28.552 192.186 29.576C192.079 30.6 191.94 31.56 191.77 32.456H190.458L188.986 28.68H183.002V36.52H186.906L188.314 34.056H189.338C189.444 35.1013 189.498 36.264 189.498 37.544C189.498 38.824 189.444 40.0187 189.338 41.128H188.314L186.906 38.6H183.002V46.92H189.242L190.938 42.856H192.25C192.335 43.2613 192.42 43.72 192.506 44.232C192.591 44.744 192.655 45.2773 192.698 45.832C192.762 46.3653 192.804 46.9093 192.826 47.464C192.868 48.0187 192.89 48.5307 192.89 49H175.578V47.784C175.94 47.592 176.346 47.4107 176.794 47.24C177.242 47.0693 177.711 46.9413 178.202 46.856V28.744C177.775 28.6587 177.316 28.5413 176.826 28.392C176.356 28.2213 175.94 28.0293 175.578 27.816V26.6H192.41ZM209.93 26.6H217.866V27.816C217.461 28.136 217.013 28.424 216.522 28.68C216.031 28.9147 215.573 29.096 215.146 29.224V49.384H212.426L201.13 33.064L199.85 30.6H199.754L200.042 33.16V46.504C200.469 46.6107 200.938 46.792 201.45 47.048C201.983 47.2827 202.431 47.528 202.794 47.784V49H194.89V47.784C195.274 47.528 195.69 47.2933 196.138 47.08C196.607 46.8453 197.087 46.6533 197.578 46.504V29.032C197.151 28.8613 196.725 28.6693 196.298 28.456C195.871 28.2427 195.487 28.0187 195.146 27.784V26.6H202.058L211.242 39.912L212.714 42.664H212.842L212.682 39.912V29.224C212.17 29.0533 211.669 28.8507 211.178 28.616C210.709 28.36 210.293 28.0933 209.93 27.816V26.6ZM235.972 26.6C235.929 27.56 235.855 28.552 235.748 29.576C235.641 30.6 235.503 31.56 235.332 32.456H234.02L232.548 28.68H226.564V36.52H230.468L231.876 34.056H232.9C233.007 35.1013 233.06 36.264 233.06 37.544C233.06 38.824 233.007 40.0187 232.9 41.128H231.876L230.468 38.6H226.564V46.92H232.804L234.5 42.856H235.812C235.897 43.2613 235.983 43.72 236.068 44.232C236.153 44.744 236.217 45.2773 236.26 45.832C236.324 46.3653 236.367 46.9093 236.388 47.464C236.431 48.0187 236.452 48.5307 236.452 49H219.14V47.784C219.503 47.592 219.908 47.4107 220.356 47.24C220.804 47.0693 221.273 46.9413 221.764 46.856V28.744C221.337 28.6587 220.879 28.5413 220.388 28.392C219.919 28.2213 219.503 28.0293 219.14 27.816V26.6H235.972Z" fill="white"/>
</svg>
